<?xml version="1.0" encoding="utf-8"?>
<!-- Generator: Adobe Illustrator 19.1.0, SVG Export Plug-In . SVG Version: 6.00 Build 0)  -->
<svg version="1.1" id="Layer_1" xmlns="http://www.w3.org/2000/svg" xmlns:xlink="http://www.w3.org/1999/xlink" x="0px" y="0px"
	 viewBox="0 0 360 360" style="enable-background:new 0 0 360 360;" xml:space="preserve">
<style type="text/css">
	.st0{fill:#00BC8C;}
	.st1{fill:#FFFFFF;}
</style>
<rect class="st0" width="360" height="360"/>
<g>
	<path class="st1" d="M147.2,149.9c0,31.9,0,63.8,0,95.7c0,1.3,0,2.6,0.1,3.9c0.3,3.4,2.3,5.4,5.3,5.4c3.1,0,5.2-2.2,5.2-5.7
		c0.1-10.1,0-20.1,0.1-30.2c0-1.1,0-2.2,0-3.4c0-2.2,0.9-3.3,3.2-3.1c21,1.7,41.7,5.1,60.7,14.9c6.7,3.5,12.7,7.8,17.3,13.9
		c6.2,8.4,6.5,17.1,1.1,26.1c-0.8,1.4-1.3,3.6-0.9,5.2c6,23.2-11,46.6-35.8,47.1c-14.2,0.3-25.3-6.2-32.8-18.4
		c-1.8-2.9-3.4-4.2-7-3.9c-16,1.4-32.1,0.8-48-1.6c-17.5-2.7-34.7-6.9-49.5-17.2c-4.4-3.1-8.5-7.1-11.6-11.5c-5.9-8.2-5.1-18,1-26
		c6.6-8.7,15.8-13.5,25.5-17.6c12.8-5.4,26.3-8.2,40.1-9.9c4.7-0.6,4.7-0.7,4.7-5.4c0-51.3,0-102.6,0-153.9c0-1.2,0-2.4,0-3.6
		c0.2-5.9,4.7-10.5,10.5-10.6c5.6-0.1,10.3,4.2,10.8,10c0.1,1.1,0.1,2.2,0.1,3.4C147.2,85.8,147.2,117.8,147.2,149.9z M202.9,255.5
		c-15,0-27,11.9-27,26.7c0.1,14.7,12.3,26.9,27,26.8c14.6-0.1,26.5-12,26.5-26.6C229.4,267.1,218,255.5,202.9,255.5z"/>
	<path class="st1" d="M222.4,145.3c-5.5-7.2-13-8.6-20.4-9.8c-8.9-1.4-17.9-1.4-26.7,0.3c-6.4,1.3-12.8,2.8-17.3,9.6
		c-0.1-1.9-0.2-2.8-0.2-3.8c0-25.6,0.1-51.3-0.1-76.9c0-5.8,2.3-9.8,7.6-11.8c4.2-1.6,8.7-2.9,13.2-3.5c10.4-1.5,20.7-0.8,30.6,2.5
		c2,0.7,4,1.6,5.8,2.7c5.3,2.8,7.7,7.2,7.7,13.2c-0.1,17.3,0,34.7,0,52c0,7.2,0,14.4,0,21.5C222.6,142.5,222.5,143.6,222.4,145.3z"
		/>
	<path class="st1" d="M233.2,79.5c3.5,4.2,6.2,8,9.4,11.3c7.1,7.1,16.1,9.7,25.9,10.3c7,0.4,14,0.6,20.9,1.1
		c14.4,1,25.1,8.1,32.8,20.1c2.6,4.1,4.8,8.5,7.2,12.8c-0.2,0.2-0.5,0.5-0.7,0.7c-0.9-0.3-1.8-0.5-2.7-0.8
		c-11.8-4.6-22.9-3.2-33.1,4.3c-4.9,3.6-9.7,7.6-14.5,11.4c-5.5,4.4-11.1,8.5-17.9,10.6c-8.6,2.7-16.9,1.3-25.1-2
		c-2.2-0.9-2.3-2.7-2.3-4.6c0-11.9,0-23.9,0-35.8c0-11.8,0-23.7,0-35.5C233.2,82.3,233.2,81.2,233.2,79.5z"/>
</g>
</svg>
